<svg width="119" height="18" viewBox="0 0 119 18" fill="none" xmlns="http://www.w3.org/2000/svg">
<path d="M15.0411 1.15692H13.0364C12.4178 1.15692 11.9163 1.64835 11.9163 2.25459V4.21923C11.9163 4.82547 12.4178 5.31692 13.0364 5.31692H15.0411C15.6597 5.31692 16.1612 4.82547 16.1612 4.21923V2.25459C16.1612 1.64835 15.6597 1.15692 15.0411 1.15692Z" fill="#141414"/>
<path d="M3.86519 12.52H1.70624C1.04005 12.52 0.5 13.0115 0.5 13.6177V15.5823C0.5 16.1886 1.04005 16.68 1.70624 16.68H3.86519C4.53138 16.68 5.07143 16.1886 5.07143 15.5823V13.6177C5.07143 13.0115 4.53138 12.52 3.86519 12.52Z" fill="#141414"/>
<path d="M3.6248 6.79091H1.62007C1.00149 6.79091 0.5 7.28233 0.5 7.88857V9.85321C0.5 10.4595 1.0016 10.9509 1.62018 10.9509H3.6248C4.24341 10.9509 4.7449 10.4595 4.7449 9.85321V7.88857C4.7449 7.28233 4.24341 6.79091 3.6248 6.79091Z" fill="#141414"/>
<path d="M9.38295 12.4891H7.37822C6.75964 12.4891 6.25815 12.9805 6.25815 13.5868L6.25804 15.5514C6.25804 16.1576 6.75975 16.6491 7.37833 16.6491H9.38295C10.0016 16.6491 10.5031 16.1576 10.5031 15.5514V13.5868C10.5031 12.9805 10.0016 12.4891 9.38295 12.4891Z" fill="#141414"/>
<path d="M3.6248 1.04314H1.62007C1.00149 1.04314 0.5 1.53456 0.5 2.1408V4.10544C0.5 4.71168 1.0016 5.20314 1.62018 5.20314H3.6248C4.24341 5.20314 4.7449 4.71168 4.7449 4.10544V2.1408C4.7449 1.53456 4.24341 1.04314 3.6248 1.04314Z" fill="#141414"/>
<path d="M9.53794 6.84874H7.53321C6.91463 6.84874 6.41314 7.34016 6.41314 7.9464V9.91104C6.41314 10.5173 6.91474 11.0087 7.53332 11.0087H9.53794C10.1566 11.0087 10.658 10.5173 10.658 9.91104V7.9464C10.658 7.34016 10.1566 6.84874 9.53794 6.84874Z" fill="#141414"/>
<path d="M15.1667 12.4891H13.1619C12.5434 12.4891 12.0419 12.9805 12.0419 13.5868V15.5514C12.0419 16.1576 12.5435 16.6491 13.162 16.6491H15.1667C15.7853 16.6491 16.2868 16.1576 16.2868 15.5514V13.5868C16.2868 12.9805 15.7853 12.4891 15.1667 12.4891Z" fill="#141414"/>
<path d="M9.2953 1.11185H7.29056C6.67198 1.11185 6.1705 1.60328 6.1705 2.20952V4.17416C6.1705 4.7804 6.6721 5.27185 7.29068 5.27185H9.2953C9.91391 5.27185 10.4154 4.78003 10.4154 4.17379V2.20952C10.4154 1.60328 9.91391 1.11185 9.2953 1.11185Z" fill="#141414"/>
<path d="M15.0219 6.96291H13.0171C12.3985 6.96291 11.8971 7.45433 11.8971 8.06057V10.0252C11.8971 10.6315 12.3987 11.1229 13.0172 11.1229H15.0219C15.6405 11.1229 16.142 10.6315 16.142 10.0252V8.06057C16.142 7.45433 15.6405 6.96291 15.0219 6.96291Z" fill="#141414"/>
<path d="M28.6907 14L25.1067 4.2H27.0247L29.7967 12.166L32.5827 4.2H34.4727L30.8887 14H28.6907ZM35.0777 14V4.2H41.4757V5.642H36.8697V8.33H41.0557V9.73H36.8697V12.558H41.4757V14H35.0777ZM46.8955 14.168C45.9715 14.168 45.1642 13.958 44.4735 13.538C43.7828 13.118 43.2462 12.5347 42.8635 11.788C42.4808 11.032 42.2895 10.1547 42.2895 9.156C42.2895 8.148 42.4855 7.26133 42.8775 6.496C43.2788 5.72133 43.8435 5.11933 44.5715 4.69C45.3088 4.25133 46.1815 4.032 47.1895 4.032C48.3375 4.032 49.2895 4.30733 50.0455 4.858C50.8015 5.40867 51.2915 6.16933 51.5155 7.14H49.5135C49.3642 6.68267 49.0935 6.328 48.7015 6.076C48.3095 5.81467 47.8055 5.684 47.1895 5.684C46.2095 5.684 45.4535 5.99667 44.9215 6.622C44.3895 7.238 44.1235 8.08733 44.1235 9.17C44.1235 10.2527 44.3848 11.0927 44.9075 11.69C45.4395 12.278 46.1582 12.572 47.0635 12.572C47.9502 12.572 48.6175 12.334 49.0655 11.858C49.5228 11.3727 49.7982 10.738 49.8915 9.954H47.4135V8.61H51.6975V14H50.0455L49.9055 12.712C49.5882 13.1787 49.1915 13.538 48.7155 13.79C48.2395 14.042 47.6328 14.168 46.8955 14.168ZM57.1636 14.168C56.2396 14.168 55.4323 13.958 54.7416 13.538C54.0509 13.118 53.5143 12.5347 53.1316 11.788C52.7489 11.032 52.5576 10.1547 52.5576 9.156C52.5576 8.148 52.7536 7.26133 53.1456 6.496C53.5469 5.72133 54.1116 5.11933 54.8396 4.69C55.5769 4.25133 56.4496 4.032 57.4576 4.032C58.6056 4.032 59.5576 4.30733 60.3136 4.858C61.0696 5.40867 61.5596 6.16933 61.7836 7.14H59.7816C59.6323 6.68267 59.3616 6.328 58.9696 6.076C58.5776 5.81467 58.0736 5.684 57.4576 5.684C56.4776 5.684 55.7216 5.99667 55.1896 6.622C54.6576 7.238 54.3916 8.08733 54.3916 9.17C54.3916 10.2527 54.6529 11.0927 55.1756 11.69C55.7076 12.278 56.4263 12.572 57.3316 12.572C58.2183 12.572 58.8856 12.334 59.3336 11.858C59.7909 11.3727 60.0663 10.738 60.1596 9.954H57.6816V8.61H61.9656V14H60.3136L60.1736 12.712C59.8563 13.1787 59.4596 13.538 58.9836 13.79C58.5076 14.042 57.9009 14.168 57.1636 14.168ZM63.1477 14V4.2H64.9397V14H63.1477ZM66.2791 14V4.2H72.6771V5.642H68.0711V8.33H72.2571V9.73H68.0711V12.558H72.6771V14H66.2791ZM73.8129 14V4.2H77.7469C78.7642 4.2 79.5389 4.438 80.0709 4.914C80.6122 5.38067 80.8829 5.98267 80.8829 6.72C80.8829 7.336 80.7149 7.83067 80.3789 8.204C80.0522 8.568 79.6509 8.81533 79.1749 8.946C79.7349 9.058 80.1969 9.338 80.5609 9.786C80.9249 10.2247 81.1069 10.738 81.1069 11.326C81.1069 12.1007 80.8269 12.74 80.2669 13.244C79.7069 13.748 78.9136 14 77.8869 14H73.8129ZM75.6049 8.316H77.4809C77.9849 8.316 78.3722 8.19933 78.6429 7.966C78.9136 7.73267 79.0489 7.40133 79.0489 6.972C79.0489 6.56133 78.9136 6.23933 78.6429 6.006C78.3816 5.76333 77.9849 5.642 77.4529 5.642H75.6049V8.316ZM75.6049 12.544H77.6069C78.1389 12.544 78.5496 12.4227 78.8389 12.18C79.1376 11.928 79.2869 11.578 79.2869 11.13C79.2869 10.6727 79.1329 10.3133 78.8249 10.052C78.5169 9.79067 78.1016 9.66 77.5789 9.66H75.6049V12.544ZM86.6769 14.168C85.6969 14.168 84.8383 13.9533 84.1009 13.524C83.3729 13.0947 82.7989 12.502 82.3789 11.746C81.9683 10.9807 81.7629 10.0987 81.7629 9.1C81.7629 8.10133 81.9683 7.224 82.3789 6.468C82.7989 5.70267 83.3729 5.10533 84.1009 4.676C84.8383 4.24667 85.6969 4.032 86.6769 4.032C87.6476 4.032 88.5016 4.24667 89.2389 4.676C89.9763 5.10533 90.5503 5.70267 90.9609 6.468C91.3716 7.224 91.5769 8.10133 91.5769 9.1C91.5769 10.0987 91.3716 10.9807 90.9609 11.746C90.5503 12.502 89.9763 13.0947 89.2389 13.524C88.5016 13.9533 87.6476 14.168 86.6769 14.168ZM86.6769 12.558C87.6103 12.558 88.3523 12.25 88.9029 11.634C89.4629 11.018 89.7429 10.1733 89.7429 9.1C89.7429 8.02667 89.4629 7.182 88.9029 6.566C88.3523 5.95 87.6103 5.642 86.6769 5.642C85.7436 5.642 84.9969 5.95 84.4369 6.566C83.8769 7.182 83.5969 8.02667 83.5969 9.1C83.5969 10.1733 83.8769 11.018 84.4369 11.634C84.9969 12.25 85.7436 12.558 86.6769 12.558ZM97.1911 14.168C96.2111 14.168 95.3525 13.9533 94.6151 13.524C93.8871 13.0947 93.3131 12.502 92.8931 11.746C92.4825 10.9807 92.2771 10.0987 92.2771 9.1C92.2771 8.10133 92.4825 7.224 92.8931 6.468C93.3131 5.70267 93.8871 5.10533 94.6151 4.676C95.3525 4.24667 96.2111 4.032 97.1911 4.032C98.1618 4.032 99.0158 4.24667 99.7531 4.676C100.49 5.10533 101.064 5.70267 101.475 6.468C101.886 7.224 102.091 8.10133 102.091 9.1C102.091 10.0987 101.886 10.9807 101.475 11.746C101.064 12.502 100.49 13.0947 99.7531 13.524C99.0158 13.9533 98.1618 14.168 97.1911 14.168ZM97.1911 12.558C98.1245 12.558 98.8665 12.25 99.4171 11.634C99.9771 11.018 100.257 10.1733 100.257 9.1C100.257 8.02667 99.9771 7.182 99.4171 6.566C98.8665 5.95 98.1245 5.642 97.1911 5.642C96.2578 5.642 95.5111 5.95 94.9511 6.566C94.3911 7.182 94.1111 8.02667 94.1111 9.1C94.1111 10.1733 94.3911 11.018 94.9511 11.634C95.5111 12.25 96.2578 12.558 97.1911 12.558ZM106.459 14.168C105.741 14.168 105.106 14.0467 104.555 13.804C104.005 13.552 103.571 13.1973 103.253 12.74C102.936 12.2733 102.773 11.7087 102.763 11.046H104.653C104.672 11.5033 104.835 11.8907 105.143 12.208C105.461 12.516 105.895 12.67 106.445 12.67C106.921 12.67 107.299 12.558 107.579 12.334C107.859 12.1007 107.999 11.7927 107.999 11.41C107.999 11.0087 107.873 10.696 107.621 10.472C107.379 10.248 107.052 10.066 106.641 9.926C106.231 9.786 105.792 9.63667 105.325 9.478C104.569 9.21667 103.991 8.88067 103.589 8.47C103.197 8.05933 103.001 7.51333 103.001 6.832C102.992 6.25333 103.127 5.75867 103.407 5.348C103.697 4.928 104.089 4.606 104.583 4.382C105.078 4.14867 105.647 4.032 106.291 4.032C106.945 4.032 107.519 4.14867 108.013 4.382C108.517 4.61533 108.909 4.942 109.189 5.362C109.479 5.782 109.633 6.28133 109.651 6.86H107.733C107.724 6.51467 107.589 6.21133 107.327 5.95C107.075 5.67933 106.721 5.544 106.263 5.544C105.871 5.53467 105.54 5.63267 105.269 5.838C105.008 6.034 104.877 6.32333 104.877 6.706C104.877 7.03267 104.98 7.294 105.185 7.49C105.391 7.67667 105.671 7.83533 106.025 7.966C106.38 8.09667 106.786 8.23667 107.243 8.386C107.729 8.554 108.172 8.75 108.573 8.974C108.975 9.198 109.297 9.49667 109.539 9.87C109.782 10.234 109.903 10.7053 109.903 11.284C109.903 11.7973 109.773 12.2733 109.511 12.712C109.25 13.1507 108.863 13.5053 108.349 13.776C107.836 14.0373 107.206 14.168 106.459 14.168ZM113.066 14V5.642H110.21V4.2H117.728V5.642H114.858V14H113.066Z" fill="#141414"/>
</svg>
