<svg width="118" height="18" viewBox="0 0 118 18" fill="none" xmlns="http://www.w3.org/2000/svg">
<path d="M14.5411 1.15692H12.5364C11.9178 1.15692 11.4163 1.64835 11.4163 2.25459V4.21923C11.4163 4.82547 11.9178 5.31692 12.5364 5.31692H14.5411C15.1597 5.31692 15.6612 4.82547 15.6612 4.21923V2.25459C15.6612 1.64835 15.1597 1.15692 14.5411 1.15692Z" fill="#77AC63"/>
<path d="M3.36519 12.52H1.20624C0.540049 12.52 0 13.0115 0 13.6177V15.5823C0 16.1886 0.540049 16.68 1.20624 16.68H3.36519C4.03138 16.68 4.57143 16.1886 4.57143 15.5823V13.6177C4.57143 13.0115 4.03138 12.52 3.36519 12.52Z" fill="#77AC63"/>
<path d="M3.1248 6.79091H1.12007C0.501486 6.79091 0 7.28233 0 7.88857V9.85321C0 10.4595 0.501599 10.9509 1.12018 10.9509H3.1248C3.74341 10.9509 4.2449 10.4595 4.2449 9.85321V7.88857C4.2449 7.28233 3.74341 6.79091 3.1248 6.79091Z" fill="#77AC63"/>
<path d="M8.88295 12.4891H6.87822C6.25964 12.4891 5.75815 12.9805 5.75815 13.5868L5.75804 15.5514C5.75804 16.1576 6.25975 16.6491 6.87833 16.6491H8.88295C9.50157 16.6491 10.0031 16.1576 10.0031 15.5514V13.5868C10.0031 12.9805 9.50157 12.4891 8.88295 12.4891Z" fill="#77AC63"/>
<path d="M3.1248 1.04314H1.12007C0.501486 1.04314 0 1.53456 0 2.1408V4.10544C0 4.71168 0.501599 5.20314 1.12018 5.20314H3.1248C3.74341 5.20314 4.2449 4.71168 4.2449 4.10544V2.1408C4.2449 1.53456 3.74341 1.04314 3.1248 1.04314Z" fill="#77AC63"/>
<path d="M9.03794 6.84874H7.03321C6.41463 6.84874 5.91314 7.34016 5.91314 7.9464V9.91104C5.91314 10.5173 6.41474 11.0087 7.03332 11.0087H9.03794C9.65655 11.0087 10.158 10.5173 10.158 9.91104V7.9464C10.158 7.34016 9.65655 6.84874 9.03794 6.84874Z" fill="#77AC63"/>
<path d="M14.6667 12.4891H12.6619C12.0434 12.4891 11.5419 12.9805 11.5419 13.5868V15.5514C11.5419 16.1576 12.0435 16.6491 12.662 16.6491H14.6667C15.2853 16.6491 15.7868 16.1576 15.7868 15.5514V13.5868C15.7868 12.9805 15.2853 12.4891 14.6667 12.4891Z" fill="#77AC63"/>
<path d="M8.7953 1.11185H6.79056C6.17198 1.11185 5.6705 1.60328 5.6705 2.20952V4.17416C5.6705 4.7804 6.1721 5.27185 6.79068 5.27185H8.7953C9.41391 5.27185 9.91539 4.78003 9.91539 4.17379V2.20952C9.91539 1.60328 9.41391 1.11185 8.7953 1.11185Z" fill="#77AC63"/>
<path d="M14.5219 6.96291H12.5171C11.8985 6.96291 11.3971 7.45433 11.3971 8.06057V10.0252C11.3971 10.6315 11.8987 11.1229 12.5172 11.1229H14.5219C15.1405 11.1229 15.642 10.6315 15.642 10.0252V8.06057C15.642 7.45433 15.1405 6.96291 14.5219 6.96291Z" fill="#77AC63"/>
<path d="M28.1907 14L24.6067 4.2H26.5247L29.2967 12.166L32.0827 4.2H33.9727L30.3887 14H28.1907ZM34.5777 14V4.2H40.9757V5.642H36.3697V8.33H40.5557V9.73H36.3697V12.558H40.9757V14H34.5777ZM46.3955 14.168C45.4715 14.168 44.6642 13.958 43.9735 13.538C43.2828 13.118 42.7462 12.5347 42.3635 11.788C41.9808 11.032 41.7895 10.1547 41.7895 9.156C41.7895 8.148 41.9855 7.26133 42.3775 6.496C42.7788 5.72133 43.3435 5.11933 44.0715 4.69C44.8088 4.25133 45.6815 4.032 46.6895 4.032C47.8375 4.032 48.7895 4.30733 49.5455 4.858C50.3015 5.40867 50.7915 6.16933 51.0155 7.14H49.0135C48.8642 6.68267 48.5935 6.328 48.2015 6.076C47.8095 5.81467 47.3055 5.684 46.6895 5.684C45.7095 5.684 44.9535 5.99667 44.4215 6.622C43.8895 7.238 43.6235 8.08733 43.6235 9.17C43.6235 10.2527 43.8848 11.0927 44.4075 11.69C44.9395 12.278 45.6582 12.572 46.5635 12.572C47.4502 12.572 48.1175 12.334 48.5655 11.858C49.0228 11.3727 49.2982 10.738 49.3915 9.954H46.9135V8.61H51.1975V14H49.5455L49.4055 12.712C49.0882 13.1787 48.6915 13.538 48.2155 13.79C47.7395 14.042 47.1328 14.168 46.3955 14.168ZM56.6636 14.168C55.7396 14.168 54.9323 13.958 54.2416 13.538C53.5509 13.118 53.0143 12.5347 52.6316 11.788C52.2489 11.032 52.0576 10.1547 52.0576 9.156C52.0576 8.148 52.2536 7.26133 52.6456 6.496C53.0469 5.72133 53.6116 5.11933 54.3396 4.69C55.0769 4.25133 55.9496 4.032 56.9576 4.032C58.1056 4.032 59.0576 4.30733 59.8136 4.858C60.5696 5.40867 61.0596 6.16933 61.2836 7.14H59.2816C59.1323 6.68267 58.8616 6.328 58.4696 6.076C58.0776 5.81467 57.5736 5.684 56.9576 5.684C55.9776 5.684 55.2216 5.99667 54.6896 6.622C54.1576 7.238 53.8916 8.08733 53.8916 9.17C53.8916 10.2527 54.1529 11.0927 54.6756 11.69C55.2076 12.278 55.9263 12.572 56.8316 12.572C57.7183 12.572 58.3856 12.334 58.8336 11.858C59.2909 11.3727 59.5663 10.738 59.6596 9.954H57.1816V8.61H61.4656V14H59.8136L59.6736 12.712C59.3563 13.1787 58.9596 13.538 58.4836 13.79C58.0076 14.042 57.4009 14.168 56.6636 14.168ZM62.6477 14V4.2H64.4397V14H62.6477ZM65.7791 14V4.2H72.1771V5.642H67.5711V8.33H71.7571V9.73H67.5711V12.558H72.1771V14H65.7791ZM73.3129 14V4.2H77.2469C78.2642 4.2 79.0389 4.438 79.5709 4.914C80.1122 5.38067 80.3829 5.98267 80.3829 6.72C80.3829 7.336 80.2149 7.83067 79.8789 8.204C79.5522 8.568 79.1509 8.81533 78.6749 8.946C79.2349 9.058 79.6969 9.338 80.0609 9.786C80.4249 10.2247 80.6069 10.738 80.6069 11.326C80.6069 12.1007 80.3269 12.74 79.7669 13.244C79.2069 13.748 78.4136 14 77.3869 14H73.3129ZM75.1049 8.316H76.9809C77.4849 8.316 77.8722 8.19933 78.1429 7.966C78.4136 7.73267 78.5489 7.40133 78.5489 6.972C78.5489 6.56133 78.4136 6.23933 78.1429 6.006C77.8816 5.76333 77.4849 5.642 76.9529 5.642H75.1049V8.316ZM75.1049 12.544H77.1069C77.6389 12.544 78.0496 12.4227 78.3389 12.18C78.6376 11.928 78.7869 11.578 78.7869 11.13C78.7869 10.6727 78.6329 10.3133 78.3249 10.052C78.0169 9.79067 77.6016 9.66 77.0789 9.66H75.1049V12.544ZM86.1769 14.168C85.1969 14.168 84.3383 13.9533 83.6009 13.524C82.8729 13.0947 82.2989 12.502 81.8789 11.746C81.4683 10.9807 81.2629 10.0987 81.2629 9.1C81.2629 8.10133 81.4683 7.224 81.8789 6.468C82.2989 5.70267 82.8729 5.10533 83.6009 4.676C84.3383 4.24667 85.1969 4.032 86.1769 4.032C87.1476 4.032 88.0016 4.24667 88.7389 4.676C89.4763 5.10533 90.0503 5.70267 90.4609 6.468C90.8716 7.224 91.0769 8.10133 91.0769 9.1C91.0769 10.0987 90.8716 10.9807 90.4609 11.746C90.0503 12.502 89.4763 13.0947 88.7389 13.524C88.0016 13.9533 87.1476 14.168 86.1769 14.168ZM86.1769 12.558C87.1103 12.558 87.8523 12.25 88.4029 11.634C88.9629 11.018 89.2429 10.1733 89.2429 9.1C89.2429 8.02667 88.9629 7.182 88.4029 6.566C87.8523 5.95 87.1103 5.642 86.1769 5.642C85.2436 5.642 84.4969 5.95 83.9369 6.566C83.3769 7.182 83.0969 8.02667 83.0969 9.1C83.0969 10.1733 83.3769 11.018 83.9369 11.634C84.4969 12.25 85.2436 12.558 86.1769 12.558ZM96.6911 14.168C95.7111 14.168 94.8525 13.9533 94.1151 13.524C93.3871 13.0947 92.8131 12.502 92.3931 11.746C91.9825 10.9807 91.7771 10.0987 91.7771 9.1C91.7771 8.10133 91.9825 7.224 92.3931 6.468C92.8131 5.70267 93.3871 5.10533 94.1151 4.676C94.8525 4.24667 95.7111 4.032 96.6911 4.032C97.6618 4.032 98.5158 4.24667 99.2531 4.676C99.9905 5.10533 100.564 5.70267 100.975 6.468C101.386 7.224 101.591 8.10133 101.591 9.1C101.591 10.0987 101.386 10.9807 100.975 11.746C100.564 12.502 99.9905 13.0947 99.2531 13.524C98.5158 13.9533 97.6618 14.168 96.6911 14.168ZM96.6911 12.558C97.6245 12.558 98.3665 12.25 98.9171 11.634C99.4771 11.018 99.7571 10.1733 99.7571 9.1C99.7571 8.02667 99.4771 7.182 98.9171 6.566C98.3665 5.95 97.6245 5.642 96.6911 5.642C95.7578 5.642 95.0111 5.95 94.4511 6.566C93.8911 7.182 93.6111 8.02667 93.6111 9.1C93.6111 10.1733 93.8911 11.018 94.4511 11.634C95.0111 12.25 95.7578 12.558 96.6911 12.558ZM105.959 14.168C105.241 14.168 104.606 14.0467 104.055 13.804C103.505 13.552 103.071 13.1973 102.753 12.74C102.436 12.2733 102.273 11.7087 102.263 11.046H104.153C104.172 11.5033 104.335 11.8907 104.643 12.208C104.961 12.516 105.395 12.67 105.945 12.67C106.421 12.67 106.799 12.558 107.079 12.334C107.359 12.1007 107.499 11.7927 107.499 11.41C107.499 11.0087 107.373 10.696 107.121 10.472C106.879 10.248 106.552 10.066 106.141 9.926C105.731 9.786 105.292 9.63667 104.825 9.478C104.069 9.21667 103.491 8.88067 103.089 8.47C102.697 8.05933 102.501 7.51333 102.501 6.832C102.492 6.25333 102.627 5.75867 102.907 5.348C103.197 4.928 103.589 4.606 104.083 4.382C104.578 4.14867 105.147 4.032 105.791 4.032C106.445 4.032 107.019 4.14867 107.513 4.382C108.017 4.61533 108.409 4.942 108.689 5.362C108.979 5.782 109.133 6.28133 109.151 6.86H107.233C107.224 6.51467 107.089 6.21133 106.827 5.95C106.575 5.67933 106.221 5.544 105.763 5.544C105.371 5.53467 105.04 5.63267 104.769 5.838C104.508 6.034 104.377 6.32333 104.377 6.706C104.377 7.03267 104.48 7.294 104.685 7.49C104.891 7.67667 105.171 7.83533 105.525 7.966C105.88 8.09667 106.286 8.23667 106.743 8.386C107.229 8.554 107.672 8.75 108.073 8.974C108.475 9.198 108.797 9.49667 109.039 9.87C109.282 10.234 109.403 10.7053 109.403 11.284C109.403 11.7973 109.273 12.2733 109.011 12.712C108.75 13.1507 108.363 13.5053 107.849 13.776C107.336 14.0373 106.706 14.168 105.959 14.168ZM112.566 14V5.642H109.71V4.2H117.228V5.642H114.358V14H112.566Z" fill="#141414"/>
</svg>
